<svg width="35" height="35" viewBox="0 0 35 35" fill="none" xmlns="http://www.w3.org/2000/svg">
<path d="M17.2174 0C19.3859 0 21.2323 0.762228 22.7568 2.28668C24.2813 3.81114 25.0435 5.65761 25.0435 7.82609C25.0435 9.99457 24.2813 11.841 22.7568 13.3655C21.2323 14.8899 19.3859 15.6522 17.2174 15.6522C15.0489 15.6522 13.2024 14.8899 11.678 13.3655C10.1535 11.841 9.3913 9.99457 9.3913 7.82609C9.3913 5.65761 10.1535 3.81114 11.678 2.28668C13.2024 0.762228 15.0489 0 17.2174 0ZM23.8696 7.875C23.2337 8.00543 22.3247 7.94429 21.1427 7.69158C19.9606 7.43886 18.962 7.1413 18.1467 6.79891C17.5924 6.55435 17.0625 6.2731 16.5571 5.95516C16.0516 5.63723 15.4728 5.23777 14.8207 4.75679C14.1685 4.27582 13.663 3.9212 13.3043 3.69293C13.5652 5.63315 12.6522 7.01902 10.5652 7.85054C10.5815 9.69294 11.2378 11.2582 12.534 12.5462C13.8302 13.8342 15.3913 14.4783 17.2174 14.4783C19.0435 14.4783 20.6046 13.8342 21.9008 12.5462C23.197 11.2582 23.8533 9.70109 23.8696 7.875ZM20.3967 29.7147H14.1848C14.0217 29.7147 13.8098 29.6821 13.5489 29.6168C13.288 29.5516 12.9783 29.3886 12.6196 29.1277C12.2609 28.8668 12.0245 28.5408 11.9103 28.1495C11.6495 27.269 11.4293 25.9484 11.25 24.1875C11.0707 22.4266 10.9321 20.8573 10.8342 19.4796C10.7364 18.1019 10.6304 17.3397 10.5163 17.1929C10.4022 17.2418 10.1454 17.3723 9.74592 17.5842C9.34647 17.7962 8.93478 17.9837 8.51087 18.1467C8.02174 18.3261 7.35326 18.5707 6.50543 18.8804C5.65761 19.1902 4.98913 19.4389 4.5 19.6264C4.01087 19.8139 3.46875 20.038 2.87364 20.2989C2.27853 20.5598 1.79755 20.8247 1.43071 21.0938C1.06386 21.3628 0.782609 21.6359 0.586957 21.913C0.195652 22.9565 0 27.1304 0 34.4348H34.4348C34.4348 32.6087 34.3899 30.2283 34.3003 27.2935C34.2106 24.3587 34.0598 22.5652 33.8478 21.913C33.6522 21.6359 33.3709 21.3628 33.0041 21.0938C32.6372 20.8247 32.1563 20.5598 31.5611 20.2989C30.966 20.038 30.4239 19.8139 29.9348 19.6264C29.4457 19.4389 28.7772 19.1902 27.9293 18.8804C27.0815 18.5707 26.413 18.3261 25.9239 18.1467C25.5 17.9837 25.0883 17.7962 24.6889 17.5842C24.2894 17.3723 24.0326 17.2418 23.9185 17.1929C23.8043 17.3397 23.7106 18.1019 23.6372 19.4796C23.5639 20.8573 23.4497 22.4266 23.2948 24.1875C23.1399 25.9484 22.9321 27.269 22.6712 28.1495C22.5571 28.5408 22.3207 28.8668 21.962 29.1277C21.6033 29.3886 21.2935 29.5516 21.0326 29.6168C20.7717 29.6821 20.5598 29.7147 20.3967 29.7147ZM17.2174 18L21.913 16.4348V21.1304L17.2174 19.5652L12.5217 21.1304V16.4348L17.2174 18ZM17.2174 23.4783C17.0217 23.4783 16.8424 23.4008 16.6793 23.2459C16.5163 23.091 16.4348 22.9076 16.4348 22.6957C16.4348 22.4837 16.5163 22.3003 16.6793 22.1454C16.8424 21.9905 17.0217 21.913 17.2174 21.913C17.413 21.913 17.5924 21.9905 17.7554 22.1454C17.9185 22.3003 18 22.4837 18 22.6957C18 22.9076 17.9185 23.091 17.7554 23.2459C17.5924 23.4008 17.413 23.4783 17.2174 23.4783ZM17.2174 26.6087C17.0217 26.6087 16.8424 26.5313 16.6793 26.3764C16.5163 26.2215 16.4348 26.038 16.4348 25.8261C16.4348 25.6141 16.5163 25.4307 16.6793 25.2758C16.8424 25.1209 17.0217 25.0435 17.2174 25.0435C17.413 25.0435 17.5924 25.1209 17.7554 25.2758C17.9185 25.4307 18 25.6141 18 25.8261C18 26.038 17.9185 26.2215 17.7554 26.3764C17.5924 26.5313 17.413 26.6087 17.2174 26.6087Z" fill="white"/>
</svg>
