<svg width="26" height="28" viewBox="0 0 26 28" fill="none" xmlns="http://www.w3.org/2000/svg">
<path d="M20.8 4H25.6V28H0V4H4.8V2.4C4.8 1.744 5.04 1.184 5.504 0.704C5.968 0.24 6.544 0 7.2 0C7.856 0 8.432 0.24 8.896 0.704C9.36 1.184 9.6 1.744 9.6 2.4V4H16V2.4C16 1.744 16.24 1.184 16.704 0.704C17.168 0.24 17.744 0 18.4 0C19.056 0 19.632 0.24 20.096 0.704C20.56 1.184 20.8 1.744 20.8 2.4V4ZM6.4 2.4V6.4C6.39805 6.5056 6.4174 6.6105 6.45692 6.70844C6.49643 6.80639 6.55528 6.89536 6.62996 6.97004C6.70464 7.04472 6.79361 7.10357 6.89156 7.14308C6.9895 7.1826 7.09441 7.20195 7.2 7.2C7.30559 7.20195 7.4105 7.1826 7.50844 7.14308C7.60639 7.10357 7.69536 7.04472 7.77004 6.97004C7.84472 6.89536 7.90357 6.80639 7.94308 6.70844C7.9826 6.6105 8.00195 6.5056 8 6.4V2.4C8 2.176 7.92 1.984 7.76 1.84C7.616 1.68 7.424 1.6 7.2 1.6C6.976 1.6 6.784 1.68 6.64 1.84C6.48 1.984 6.4 2.176 6.4 2.4ZM17.6 2.4V6.4C17.6 6.624 17.68 6.816 17.824 6.976C17.984 7.12 18.176 7.2 18.4 7.2C18.624 7.2 18.816 7.12 18.976 6.976C19.12 6.816 19.2 6.624 19.2 6.4V2.4C19.202 2.2944 19.1826 2.1895 19.1431 2.09156C19.1036 1.99361 19.0447 1.90464 18.97 1.82996C18.8954 1.75528 18.8064 1.69643 18.7084 1.65692C18.6105 1.6174 18.5056 1.59805 18.4 1.6C18.2944 1.59805 18.1895 1.6174 18.0916 1.65692C17.9936 1.69643 17.9046 1.75528 17.83 1.82996C17.7553 1.90464 17.6964 1.99361 17.6569 2.09156C17.6174 2.1895 17.598 2.2944 17.6 2.4ZM24 26.4V10.4H1.6V26.4H24ZM8 12V15.2H4.8V12H8ZM11.2 12H14.4V15.2H11.2V12ZM17.6 15.2V12H20.8V15.2H17.6ZM8 16.8V20H4.8V16.8H8ZM11.2 16.8H14.4V20H11.2V16.8ZM17.6 20V16.8H20.8V20H17.6ZM8 21.6V24.8H4.8V21.6H8ZM14.4 24.8H11.2V21.6H14.4V24.8ZM20.8 24.8H17.6V21.6H20.8V24.8Z" fill="white"/>
</svg>
