<svg width="30" height="25" viewBox="0 0 30 25" fill="none" xmlns="http://www.w3.org/2000/svg">
<path d="M29.9372 8.595L27.7922 1.095C27.7049 0.780129 27.5169 0.502546 27.2568 0.304773C26.9967 0.106999 26.6789 -5.80728e-05 26.3522 2.36327e-08H3.6422C2.9672 2.36327e-08 2.3822 0.45 2.2022 1.095L0.057204 8.595C-0.212796 9.54 0.507204 10.5 1.4972 10.5H4.7972L3.2222 22.32C3.19042 22.5159 3.19826 22.7161 3.24525 22.9089C3.29224 23.1017 3.37743 23.2831 3.49578 23.4424C3.61413 23.6017 3.76323 23.7356 3.93426 23.8362C4.10528 23.9368 4.29476 24.0021 4.49147 24.0282C4.68818 24.0543 4.88813 24.0407 5.07947 23.9881C5.27082 23.9356 5.44968 23.8452 5.60546 23.7222C5.76124 23.5993 5.89078 23.4464 5.98641 23.2725C6.08204 23.0987 6.14182 22.9074 6.1622 22.71L7.0022 16.5H23.0072L23.8322 22.71C23.8824 23.0653 24.0583 23.3908 24.3281 23.6275C24.5978 23.8642 24.9434 23.9964 25.3022 24C26.2022 24 26.8922 23.205 26.7722 22.32L25.1972 10.5H28.4972C29.4872 10.5 30.2072 9.54 29.9372 8.595ZM7.3922 13.5L7.7972 10.5H22.1972L22.6022 13.5H7.3922Z" fill="white"/>
</svg>
