<svg width="48" height="48" viewBox="0 0 48 48" fill="none" xmlns="http://www.w3.org/2000/svg">
<path d="M44.9062 20.9062C44.4375 21.4062 43.9531 21.9375 43.4531 22.5C42.9531 23.0625 42.3203 23.8125 41.5547 24.75C40.7891 25.6875 40.1719 26.625 39.7031 27.5625C39.2344 28.5 39 29.3125 39 30C39 30.8438 37.5391 31.5547 34.6172 32.1328C31.6953 32.7109 28.1562 33 24 33C19.8438 33 16.3047 32.7109 13.3828 32.1328C10.4609 31.5547 9 30.8438 9 30C9 29.0938 8.57812 27.9609 7.73438 26.6016C6.89062 25.2422 6.10156 24.1484 5.36719 23.3203C4.63281 22.4922 3.90625 21.7188 3.1875 21C1.0625 18.9375 0 16.4375 0 13.5C0 10.5938 1.02344 8.11719 3.07031 6.07031C5.11719 4.02344 7.59375 3 10.5 3C11.2188 3 11.9688 3.07812 12.75 3.23438C12.25 4.51562 12 5.9375 12 7.5C12 10.8438 13.0312 13.625 15.0938 15.8438C15.0312 14.1562 15 12.375 15 10.5C15 7.59375 15.875 5.11719 17.625 3.07031C19.375 1.02344 21.5 0 24 0C26.5 0 28.625 1.02344 30.375 3.07031C32.125 5.11719 33 7.59375 33 10.5C33 12.4062 32.9688 14.1875 32.9062 15.8438C34.9688 13.625 36 10.8438 36 7.5C36 5.9375 35.75 4.51562 35.25 3.23438C36.0312 3.07812 36.7812 3 37.5 3C40.4062 3 42.8828 4.02344 44.9297 6.07031C46.9766 8.11719 48 10.5938 48 13.5C48 16.4062 46.9688 18.875 44.9062 20.9062ZM23.9766 36C28.1172 36 31.6562 35.7031 34.5938 35.1094C37.5312 34.5156 39 33.8125 39 33V45C39 45.8125 37.5312 46.5156 34.5938 47.1094C31.6562 47.7031 28.1172 48 23.9766 48C19.8359 48 16.3047 47.7031 13.3828 47.1094C10.4609 46.5156 9 45.8125 9 45V33C9 33.8438 10.4609 34.5547 13.3828 35.1328C16.3047 35.7109 19.8359 36 23.9766 36Z" fill="#45545A"/>
</svg>
