<svg width="28" height="25" viewBox="0 0 28 25" fill="none" xmlns="http://www.w3.org/2000/svg">
<path d="M13.143 7.44734L4.5007 14.5653V22.2477C4.5007 22.4466 4.57972 22.6373 4.72037 22.778C4.86102 22.9186 5.05179 22.9977 5.2507 22.9977L10.5035 22.9841C10.7018 22.9831 10.8916 22.9036 11.0314 22.7631C11.1713 22.6225 11.2498 22.4323 11.2498 22.2341V17.7477C11.2498 17.5487 11.3288 17.358 11.4694 17.2173C11.6101 17.0767 11.8009 16.9977 11.9998 16.9977H14.9998C15.1987 16.9977 15.3894 17.0767 15.5301 17.2173C15.6707 17.358 15.7498 17.5487 15.7498 17.7477V22.2308C15.7495 22.3295 15.7686 22.4273 15.8062 22.5185C15.8437 22.6098 15.8989 22.6927 15.9686 22.7626C16.0383 22.8325 16.1211 22.888 16.2122 22.9258C16.3034 22.9637 16.4011 22.9831 16.4998 22.9831L21.7507 22.9977C21.9496 22.9977 22.1404 22.9186 22.281 22.778C22.4217 22.6373 22.5007 22.4466 22.5007 22.2477V14.5602L13.8602 7.44734C13.7587 7.36546 13.6321 7.32082 13.5016 7.32082C13.3712 7.32082 13.2446 7.36546 13.143 7.44734ZM26.7945 12.2853L22.8757 9.05516V2.5625C22.8757 2.41332 22.8164 2.27024 22.711 2.16475C22.6055 2.05926 22.4624 2 22.3132 2H19.6882C19.539 2 19.3959 2.05926 19.2905 2.16475C19.185 2.27024 19.1257 2.41332 19.1257 2.5625V5.96609L14.929 2.51328C14.5262 2.18187 14.0209 2.00066 13.4993 2.00066C12.9777 2.00066 12.4724 2.18187 12.0696 2.51328L0.20414 12.2853C0.147181 12.3324 0.100057 12.3902 0.065459 12.4555C0.0308615 12.5208 0.00946911 12.5923 0.00250414 12.6659C-0.00446084 12.7394 0.00313812 12.8137 0.0248668 12.8843C0.0465955 12.9549 0.0820281 13.0206 0.12914 13.0775L1.32445 14.5306C1.37144 14.5878 1.42923 14.6351 1.49451 14.6698C1.5598 14.7046 1.63131 14.7261 1.70493 14.7332C1.77856 14.7403 1.85286 14.7328 1.92359 14.7112C1.99432 14.6895 2.06008 14.6541 2.11711 14.607L13.143 5.52547C13.2446 5.44359 13.3712 5.39894 13.5016 5.39894C13.6321 5.39894 13.7587 5.44359 13.8602 5.52547L24.8866 14.607C24.9436 14.6541 25.0092 14.6896 25.0799 14.7113C25.1505 14.733 25.2247 14.7406 25.2983 14.7337C25.3718 14.7267 25.4433 14.7053 25.5086 14.6707C25.5739 14.6361 25.6318 14.589 25.6788 14.532L26.8741 13.0789C26.9212 13.0216 26.9565 12.9557 26.978 12.8847C26.9994 12.8138 27.0067 12.7393 26.9993 12.6655C26.9919 12.5918 26.97 12.5202 26.9348 12.455C26.8997 12.3897 26.852 12.3321 26.7945 12.2853Z" fill="#E84A5F"/>
</svg>
