<svg width="26" height="26" viewBox="0 0 26 26" fill="none" xmlns="http://www.w3.org/2000/svg">
<path d="M21.5556 11.9H4.44444C3.09441 11.9 2 12.885 2 14.1V21.8C2 23.0151 3.09441 24 4.44444 24H21.5556C22.9056 24 24 23.0151 24 21.8V14.1C24 12.885 22.9056 11.9 21.5556 11.9Z" stroke="white" stroke-width="3" stroke-linecap="round" stroke-linejoin="round"/>
<path d="M6.88892 11.9V7.5C6.88892 6.04131 7.53276 4.64236 8.67882 3.61091C9.82487 2.57946 11.3793 2 13 2C14.6208 2 16.1752 2.57946 17.3212 3.61091C18.4673 4.64236 19.1111 6.04131 19.1111 7.5V11.9" stroke="white" stroke-width="3" stroke-linecap="round" stroke-linejoin="round"/>
</svg>
