<svg width="27" height="30" viewBox="0 0 27 30" fill="none" xmlns="http://www.w3.org/2000/svg">
<path d="M24 3H17.73C17.1 1.26 15.45 0 13.5 0C11.55 0 9.9 1.26 9.27 3H3C1.35 3 0 4.35 0 6V27C0 28.65 1.35 30 3 30H24C25.65 30 27 28.65 27 27V6C27 4.35 25.65 3 24 3ZM13.5 2.625C14.115 2.625 14.625 3.135 14.625 3.75C14.625 4.365 14.115 4.875 13.5 4.875C12.885 4.875 12.375 4.365 12.375 3.75C12.375 3.135 12.885 2.625 13.5 2.625ZM24 27H3V6H24V27Z" fill="white"/>
<path d="M18.12 15.045L14.94 11.865L6 20.79V24H9.15L18.12 15.045ZM20.775 12.405C21.075 12.105 21.075 11.64 20.775 11.34L18.66 9.225C18.36 8.925 17.895 8.925 17.595 9.225L16.005 10.815L19.185 13.995L20.775 12.405Z" fill="white"/>
</svg>
