<svg width="62" height="54" viewBox="0 0 62 54" fill="none" xmlns="http://www.w3.org/2000/svg">
<path d="M30.9997 7.64932L35.8315 21.2076L52.1297 21.0203L38.8178 29.2125L44.0588 42.655L30.9997 34.1598L17.9406 42.655L23.1816 29.2125L9.86963 21.0203L26.1678 21.2076L30.9997 7.64932Z" fill="#E84A5F"/>
<path d="M49.0609 15.7303L39.2204 27.0476L48.8872 38.4779L33.4883 33.8239L23.9942 45.3634L24.3177 31.1698L8.78317 26.8713L24.3819 22.7532L24.2752 8.55706L33.5923 20.2055L49.0609 15.7303Z" fill="#E84A5F"/>
<path d="M53.0432 24.5854L38.2008 30.4526L40.4478 44.5135L29.4544 34.0321L14.795 40.2384L22.8431 27.8932L11.5361 17.6681L27.5034 20.5198L35.1748 7.994L36.995 22.1016L53.0432 24.5854Z" fill="#E84A5F"/>
<path d="M52.5943 31.5496L36.3276 32.4523L32.7048 46.2936L26.6924 33.0983L10.4588 34.3745L23.0096 25.3166L16.5995 12.2641L30.3687 19.8614L42.6407 10.5182L38.5997 24.2714L52.5943 31.5496Z" fill="#E84A5F"/>
</svg>
