<svg width="28" height="18" viewBox="0 0 28 18" fill="none" xmlns="http://www.w3.org/2000/svg">
<path d="M13.6406 0.421875H11.4152C11.2992 0.421875 11.2043 0.516797 11.2043 0.632812V12.593H11.0039L2.72109 0.513281C2.68242 0.457031 2.61562 0.421875 2.54883 0.421875H0.210938C0.0949219 0.421875 0 0.516797 0 0.632812V16.9453C0 17.0613 0.0949219 17.1562 0.210938 17.1562H2.41523C2.53125 17.1562 2.62617 17.0613 2.62617 16.9453V4.81992H2.82656L11.2008 17.0648C11.2395 17.1211 11.3063 17.1562 11.3766 17.1562H13.6406C13.7566 17.1562 13.8516 17.0613 13.8516 16.9453V0.632812C13.8516 0.516797 13.7566 0.421875 13.6406 0.421875ZM26.9297 14.9414H16.2422C16.0875 14.9414 15.9609 15.068 15.9609 15.2227V16.9102C15.9609 17.0648 16.0875 17.1914 16.2422 17.1914H26.9297C27.0844 17.1914 27.2109 17.0648 27.2109 16.9102V15.2227C27.2109 15.068 27.0844 14.9414 26.9297 14.9414ZM21.5789 12.7266C23.4387 12.7266 24.9258 12.1219 26.0156 10.909C27.0492 9.75234 27.5625 8.24414 27.5625 6.38086C27.5625 4.51406 27.0492 2.98828 26.0156 1.83516C24.9293 0.611719 23.4422 0 21.5789 0C19.691 0 18.2074 0.615234 17.1387 1.85625C16.1121 3.01992 15.6129 4.52461 15.6129 6.38086C15.6129 8.22305 16.1156 9.72773 17.1422 10.8914C18.218 12.1113 19.7086 12.7266 21.5789 12.7266ZM19.0652 3.45586C19.6594 2.73164 20.482 2.36953 21.5754 2.36953C22.6828 2.36953 23.502 2.70703 24.0715 3.39258C24.648 4.10625 24.9469 5.10117 24.9469 6.37734C24.9469 7.65352 24.6516 8.63086 24.075 9.32695C23.4949 10.009 22.6688 10.3535 21.5754 10.3535C20.4785 10.3535 19.6418 9.99141 19.0652 9.28477C18.4922 8.57812 18.2039 7.62187 18.2039 6.38086C18.2074 5.12227 18.4922 4.16602 19.0652 3.45586Z" fill="white"/>
</svg>
