<svg width="50" height="50" viewBox="0 0 50 50" fill="none" xmlns="http://www.w3.org/2000/svg">
<path d="M44.1252 32.9904L49.4844 35.7756C50.1719 36.1327 50.1719 37.152 49.4844 37.5091L25.835 49.7958C25.5759 49.9301 25.2902 50 25.0006 50C24.7111 50 24.4254 49.9301 24.1663 49.7958L0.516911 37.5091C0.36242 37.4282 0.232583 37.3043 0.141866 37.1513C0.0511487 36.9982 0.00311426 36.8221 0.00311426 36.6423C0.00311426 36.4626 0.0511487 36.2864 0.141866 36.1334C0.232583 35.9804 0.36242 35.8565 0.516911 35.7756L5.87927 32.9904L22.4945 41.6219C24.0725 42.44 25.9319 42.44 27.5068 41.6219L44.122 32.9872L44.1252 32.9904ZM24.1663 0.204235C24.4254 0.0699176 24.7111 0 25.0006 0C25.2902 0 25.5759 0.0699176 25.835 0.204235L49.4844 12.4877C49.6388 12.5691 49.7684 12.6933 49.859 12.8466C49.9495 12.9999 49.9975 13.1762 49.9975 13.356C49.9975 13.5359 49.9495 13.7122 49.859 13.8655C49.7684 14.0187 49.6388 14.143 49.4844 14.2244L25.835 26.5046C25.5759 26.6389 25.2902 26.7088 25.0006 26.7088C24.7111 26.7088 24.4254 26.6389 24.1663 26.5046L0.516911 14.2244C0.361601 14.1438 0.230969 14.0199 0.139666 13.8665C0.0483634 13.7131 0 13.5364 0 13.356C0 13.1757 0.0483634 12.9989 0.139666 12.8456C0.230969 12.6922 0.361601 12.5683 0.516911 12.4877L24.1663 0.204235Z" fill="#45545A"/>
<path d="M44.1245 21.3465L49.4837 24.1317C50.1712 24.4888 50.1712 25.5081 49.4837 25.8651L25.8343 38.1486C25.5752 38.2829 25.2896 38.3528 25 38.3528C24.7104 38.3528 24.4247 38.2829 24.1656 38.1486L0.516238 25.8651C0.361747 25.7843 0.23191 25.6604 0.141193 25.5074C0.0504758 25.3543 0.00244141 25.1781 0.00244141 24.9984C0.00244141 24.8187 0.0504758 24.6425 0.141193 24.4895C0.23191 24.3365 0.361747 24.2126 0.516238 24.1317L5.8786 21.3465L22.4938 29.978C24.0719 30.7961 25.9312 30.7961 27.5062 29.978L44.1214 21.3465H44.1245Z" fill="#45545A"/>
</svg>
