<svg width="28" height="28" viewBox="0 0 28 28" fill="none" xmlns="http://www.w3.org/2000/svg">
<path d="M2.75 27.5C2.75 27.5 0.5 27.5 0.5 25.25C0.5 23 2.75 16.25 14 16.25C25.25 16.25 27.5 23 27.5 25.25C27.5 27.5 25.25 27.5 25.25 27.5H2.75ZM14 14C15.7902 14 17.5071 13.2888 18.773 12.023C20.0388 10.7571 20.75 9.04021 20.75 7.25C20.75 5.45979 20.0388 3.7429 18.773 2.47703C17.5071 1.21116 15.7902 0.5 14 0.5C12.2098 0.5 10.4929 1.21116 9.22703 2.47703C7.96116 3.7429 7.25 5.45979 7.25 7.25C7.25 9.04021 7.96116 10.7571 9.22703 12.023C10.4929 13.2888 12.2098 14 14 14Z" fill="white"/>
</svg>
