<svg width="58" height="41" viewBox="0 0 58 41" fill="none" xmlns="http://www.w3.org/2000/svg">
<path d="M23.2 17.5712H14.7929L14.7958 17.5449C15.1745 15.6724 15.9156 13.8938 16.9766 12.3113C18.5555 9.96202 20.7702 8.1209 23.3566 7.00753C24.2324 6.63266 25.1459 6.34565 26.0768 6.15529C28.0079 5.75991 29.9979 5.75991 31.929 6.15529C34.7042 6.72958 37.2508 8.11578 39.2515 10.1412L43.3579 6.00593C41.5072 4.13639 39.3175 2.64395 36.9083 1.61001C35.6796 1.08469 34.4021 0.684414 33.0948 0.415114C30.3973 -0.138371 27.6172 -0.138371 24.9197 0.415114C23.6114 0.68553 22.3329 1.08678 21.1033 1.61294C17.4798 3.16543 14.378 5.74261 12.1713 9.03417C10.6862 11.2537 9.64761 13.7464 9.1147 16.3705C9.0335 16.7658 8.99 17.17 8.932 17.5712H0L11.6 29.2859L23.2 17.5712ZM34.8 23.4285H43.2071L43.2042 23.452C42.4465 27.2058 40.2555 30.5074 37.1055 32.6421C35.539 33.7145 33.7777 34.463 31.9232 34.8445C29.9931 35.2399 28.004 35.2399 26.0739 34.8445C24.2197 34.4621 22.4586 33.7136 20.8916 32.6421C20.122 32.1164 19.4035 31.5182 18.7456 30.8556L14.645 34.9968C16.4967 36.8658 18.6874 38.3573 21.0975 39.3898C22.3271 39.9169 23.6118 40.3181 24.911 40.5846C27.6075 41.1385 30.3867 41.1385 33.0832 40.5846C38.2816 39.4951 42.8541 36.4008 45.8287 31.9597C47.3124 29.7419 48.3499 27.2512 48.8824 24.6293C48.9607 24.2339 49.0071 23.8298 49.0651 23.4285H58L46.4 11.7139L34.8 23.4285Z" fill="#45545A"/>
</svg>
