<svg width="406" height="215" viewBox="0 0 406 215" fill="none" xmlns="http://www.w3.org/2000/svg">
<g clip-path="url(#clip0_148:2)">
<path d="M18.99 214.381L19.0742 213.94C19.0929 213.843 21.0094 204.179 28.1939 198.572C35.3787 192.964 45.2811 193.403 45.3801 193.408L45.8316 193.431L45.7474 193.872C45.7287 193.969 43.8121 203.632 36.6277 209.24C29.4429 214.848 19.5405 214.409 19.4415 214.404L18.99 214.381ZM28.6811 199.188C22.6066 203.929 20.4193 211.681 19.9513 213.63C21.9686 213.639 30.0718 213.36 36.1404 208.624C42.2084 203.887 44.4004 196.132 44.8702 194.181C42.8517 194.173 34.7493 194.452 28.6811 199.188Z" fill="#F1F1F1"/>
<path d="M31.5382 201.338C28.247 209.762 19.5829 214.278 19.5829 214.278C19.5829 214.278 16.2548 205.136 19.5461 196.712C22.8373 188.288 31.5014 183.773 31.5014 183.773C31.5014 183.773 34.8294 192.914 31.5382 201.338Z" fill="#F1F1F1"/>
<path d="M394.082 214.404C393.984 214.409 384.081 214.848 376.896 209.24C369.712 203.632 367.795 193.969 367.777 193.872L367.692 193.431L368.144 193.408C368.243 193.403 378.145 192.964 385.33 198.572C392.515 204.179 394.431 213.843 394.45 213.94L394.534 214.381L394.082 214.404ZM368.654 194.181C369.124 196.132 371.316 203.887 377.383 208.624C383.452 213.36 391.555 213.639 393.573 213.63C393.105 211.681 390.917 203.929 384.843 199.188C378.775 194.452 370.672 194.173 368.654 194.181H368.654Z" fill="#F1F1F1"/>
<path d="M381.986 201.338C385.277 209.762 393.941 214.278 393.941 214.278C393.941 214.278 397.269 205.136 393.978 196.712C390.687 188.288 382.023 183.773 382.023 183.773C382.023 183.773 378.695 192.914 381.986 201.338Z" fill="#F1F1F1"/>
<path d="M232.7 212.367L226.945 209.959L222.998 181.296H170.43L166.152 209.842L161.003 212.4C160.757 212.522 160.56 212.724 160.443 212.971C160.326 213.219 160.297 213.499 160.36 213.765C160.424 214.032 160.576 214.269 160.792 214.439C161.007 214.609 161.275 214.701 161.55 214.701H232.226C232.508 214.701 232.781 214.604 233 214.426C233.218 214.249 233.368 214.002 233.424 213.727C233.48 213.452 233.438 213.166 233.306 212.918C233.174 212.67 232.96 212.475 232.7 212.367Z" fill="#E6E6E6"/>
<path d="M326.116 185.109H67.8892C66.5343 185.106 65.236 184.569 64.2791 183.616C63.3221 182.663 62.7847 181.372 62.7847 180.026V143.843H331.22V180.026C331.22 181.372 330.683 182.663 329.726 183.616C328.769 184.569 327.471 185.106 326.116 185.109Z" fill="#CCCCCC"/>
<path d="M331.49 160.944H62.5491V6.128C62.551 4.50329 63.2013 2.94567 64.3575 1.79685C65.5138 0.648024 67.0814 0.00182107 68.7164 0H325.323C326.958 0.00182001 328.526 0.64802 329.682 1.79684C330.838 2.94566 331.489 4.50329 331.49 6.128V160.944Z" fill="#3F3D56"/>
<path d="M315.428 149.707H78.612C77.3515 149.706 76.1429 149.208 75.2516 148.322C74.3602 147.437 73.8588 146.236 73.8574 144.983V15.9609C73.8588 14.7083 74.3602 13.5074 75.2516 12.6217C76.1429 11.736 77.3514 11.2377 78.612 11.2363H315.428C316.688 11.2377 317.897 11.736 318.788 12.6217C319.68 13.5074 320.181 14.7083 320.182 15.9609V144.983C320.181 146.236 319.68 147.437 318.788 148.322C317.897 149.208 316.688 149.706 315.428 149.707Z" fill="white"/>
<path d="M405.398 215H0.626363C0.49005 215.003 0.356608 214.961 0.246829 214.881C0.13705 214.8 0.0570986 214.686 0.0194334 214.556C-0.0040814 214.467 -0.00681837 214.374 0.0114306 214.285C0.0296795 214.195 0.0684265 214.11 0.124695 214.038C0.180964 213.965 0.253251 213.906 0.335995 213.866C0.418738 213.825 0.509733 213.804 0.601975 213.804H405.349C405.493 213.799 405.634 213.842 405.75 213.927C405.865 214.012 405.949 214.134 405.986 214.272C406.006 214.359 406.005 214.45 405.985 214.537C405.964 214.624 405.924 214.706 405.868 214.776C405.812 214.846 405.74 214.902 405.659 214.941C405.577 214.98 405.488 215 405.398 215Z" fill="#CCCCCC"/>
<path d="M125.554 60.0308H86.5903V63.6667H125.554V60.0308Z" fill="#E5E5E5"/>
<path d="M125.554 68.8483H86.5903V72.4843H125.554V68.8483Z" fill="#E5E5E5"/>
<path d="M125.554 77.8607H86.5903V81.4966H125.554V77.8607Z" fill="#E5E5E5"/>
<path d="M125.554 86.8729H86.5903V90.5089H125.554V86.8729Z" fill="#E5E5E5"/>
<path d="M116.325 98.325H95.8193V101.48H116.325V98.325Z" fill="#E84A5F"/>
<path d="M186.182 82.5815H185.811V83.6921H186.182V82.5815Z" fill="#E5E5E5"/>
<path d="M186.182 107.355H185.811V104.989H186.182V107.355ZM186.182 102.623H185.811V100.256H186.182V102.623ZM186.182 97.8901H185.811V95.5238H186.182V97.8901ZM186.182 93.1574H185.811V90.791H186.182V93.1574ZM186.182 88.4248H185.811V86.0584H186.182V88.4248Z" fill="#E5E5E5"/>
<path d="M186.182 109.722H185.811V110.832H186.182V109.722Z" fill="#E5E5E5"/>
<path d="M226.978 82.5815H226.607V83.6921H226.978V82.5815Z" fill="#E5E5E5"/>
<path d="M226.978 107.355H226.607V104.989H226.978V107.355ZM226.978 102.623H226.607V100.256H226.978V102.623ZM226.978 97.8901H226.607V95.5238H226.978V97.8901ZM226.978 93.1574H226.607V90.791H226.978V93.1574ZM226.978 88.4248H226.607V86.0584H226.978V88.4248Z" fill="#E5E5E5"/>
<path d="M226.978 109.722H226.607V110.832H226.978V109.722Z" fill="#E5E5E5"/>
<path d="M247.557 60.855H247.186V61.9656H247.557V60.855Z" fill="#E5E5E5"/>
<path d="M247.557 107.448H247.186V105.174H247.557V107.448ZM247.557 102.9H247.186V100.625H247.557V102.9ZM247.557 98.3513H247.186V96.0772H247.557V98.3513ZM247.557 93.8031H247.186V91.529H247.557V93.8031ZM247.557 89.2549H247.186V86.9807H247.557V89.2549ZM247.557 84.7066H247.186V82.4325H247.557V84.7066ZM247.557 80.1585H247.186V77.8844H247.557V80.1585ZM247.557 75.6103H247.186V73.3362H247.557V75.6103ZM247.557 71.062H247.186V68.7879H247.557V71.062ZM247.557 66.5138H247.186V64.2397H247.557V66.5138Z" fill="#E5E5E5"/>
<path d="M247.557 109.722H247.186V110.832H247.557V109.722Z" fill="#E5E5E5"/>
<path d="M267.93 51.9701H267.56V53.0807H267.93V51.9701Z" fill="#E5E5E5"/>
<path d="M267.93 107.456H267.56V105.191H267.93V107.456ZM267.93 102.925H267.56V100.659H267.93V102.925ZM267.93 98.3937H267.56V96.128H267.93V98.3937ZM267.93 93.8624H267.56V91.5967H267.93V93.8624ZM267.93 89.3311H267.56V87.0654H267.93V89.3311ZM267.93 84.7998H267.56V82.5341H267.93V84.7998ZM267.93 80.2685H267.56V78.0028H267.93V80.2685ZM267.93 75.7372H267.56V73.4715H267.93V75.7372ZM267.93 71.2059H267.56V68.9402H267.93V71.2059ZM267.93 66.6746H267.56V64.4089H267.93V66.6746ZM267.93 62.1434H267.56V59.8777H267.93V62.1434ZM267.93 57.6121H267.56V55.3464H267.93V57.6121Z" fill="#E5E5E5"/>
<path d="M267.93 109.722H267.56V110.832H267.93V109.722Z" fill="#E5E5E5"/>
<path d="M206.673 67.7037H206.302V68.8144H206.673V67.7037Z" fill="#E5E5E5"/>
<path d="M206.673 107.569H206.302V105.416H206.673V107.569ZM206.673 103.263H206.302V101.11H206.673V103.263ZM206.673 98.9567H206.302V96.8038H206.673V98.9567ZM206.673 94.6507H206.302V92.4977H206.673V94.6507ZM206.673 90.3446H206.302V88.1916H206.673V90.3446ZM206.673 86.0386H206.302V83.8856H206.673V86.0386ZM206.673 81.7325H206.302V79.5795H206.673V81.7325ZM206.673 77.4265H206.302V75.2735H206.673V77.4265ZM206.673 73.1204H206.302V70.9674H206.673V73.1204Z" fill="#E5E5E5"/>
<path d="M206.673 109.722H206.302V110.832H206.673V109.722Z" fill="#E5E5E5"/>
<path d="M288.596 111.348H165.253C165.151 111.348 165.053 111.308 164.98 111.236C164.908 111.164 164.867 111.066 164.867 110.965V52.2217C164.867 52.12 164.908 52.0224 164.98 51.9505C165.053 51.8785 165.151 51.8381 165.253 51.8381C165.356 51.8381 165.454 51.8785 165.526 51.9505C165.599 52.0224 165.639 52.12 165.639 52.2217V110.581H288.596C288.699 110.581 288.797 110.621 288.869 110.693C288.942 110.765 288.982 110.863 288.982 110.965C288.982 111.066 288.942 111.164 288.869 111.236C288.797 111.308 288.699 111.348 288.596 111.348V111.348Z" fill="#3F3D56"/>
<path d="M226.963 83.0969L206.456 67.8344L186.229 82.8884L185.766 82.2744L206.456 66.8759L226.865 82.066L247.147 60.0121L247.228 59.9792L267.686 51.7886L267.975 52.5005L247.598 60.6582L226.963 83.0969Z" fill="#3F3D56"/>
<path d="M185.997 84.8828C187.276 84.8828 188.313 83.8524 188.313 82.5814C188.313 81.3104 187.276 80.2801 185.997 80.2801C184.718 80.2801 183.681 81.3104 183.681 82.5814C183.681 83.8524 184.718 84.8828 185.997 84.8828Z" fill="#E84A5F"/>
<path d="M206.456 69.9241C207.735 69.9241 208.772 68.8937 208.772 67.6227C208.772 66.3517 207.735 65.3214 206.456 65.3214C205.177 65.3214 204.14 66.3517 204.14 67.6227C204.14 68.8937 205.177 69.9241 206.456 69.9241Z" fill="#E84A5F"/>
<path d="M226.914 84.8828C228.193 84.8828 229.23 83.8524 229.23 82.5814C229.23 81.3104 228.193 80.2801 226.914 80.2801C225.635 80.2801 224.598 81.3104 224.598 82.5814C224.598 83.8524 225.635 84.8828 226.914 84.8828Z" fill="#E84A5F"/>
<path d="M247.372 62.6365C248.651 62.6365 249.688 61.6062 249.688 60.3352C249.688 59.0642 248.651 58.0338 247.372 58.0338C246.093 58.0338 245.056 59.0642 245.056 60.3352C245.056 61.6062 246.093 62.6365 247.372 62.6365Z" fill="#E84A5F"/>
<path d="M267.831 54.1983C269.11 54.1983 270.147 53.1679 270.147 51.8969C270.147 50.6259 269.11 49.5956 267.831 49.5956C266.552 49.5956 265.515 50.6259 265.515 51.8969C265.515 53.1679 266.552 54.1983 267.831 54.1983Z" fill="#E84A5F"/>
<path d="M137.732 11.2362H136.943V149.707H137.732V11.2362Z" fill="#E5E5E5"/>
<path d="M323.664 148.29C323.936 147.968 324.134 147.591 324.244 147.184C324.354 146.778 324.372 146.352 324.298 145.938C324.225 145.524 324.06 145.13 323.817 144.786C323.574 144.441 323.258 144.154 322.891 143.944L324.816 133.896L319.878 135.941L318.807 145.169C318.493 145.805 318.425 146.534 318.615 147.216C318.806 147.899 319.242 148.489 319.84 148.873C320.439 149.258 321.159 149.411 321.864 149.304C322.568 149.196 323.209 148.836 323.664 148.29Z" fill="#FFB7B7"/>
<path d="M348.283 209.946H344.102L342.113 193.922L348.284 193.923L348.283 209.946Z" fill="#FFB7B7"/>
<path d="M349.349 213.973L335.868 213.973V213.803C335.869 212.421 336.421 211.094 337.405 210.117C338.389 209.139 339.724 208.59 341.115 208.59H341.116L349.349 208.59L349.349 213.973Z" fill="#2F2E41"/>
<path d="M325.435 209.946H321.254L319.265 193.922L325.436 193.923L325.435 209.946Z" fill="#FFB7B7"/>
<path d="M325.478 213.973L311.997 213.973V213.803C311.997 212.421 312.55 211.094 313.534 210.117C314.518 209.139 315.853 208.59 317.244 208.59H317.244L325.478 208.59L325.478 213.973Z" fill="#2F2E41"/>
<path d="M325.092 142.27L321 151.638L317.624 205.481L326.15 205.143L328.478 179.475L335.661 156.614L339.79 182.1L341.495 204.465L348.55 204.768L351.361 142.27H325.092Z" fill="#2F2E41"/>
<path d="M345.548 96.0449L333.687 96.3397L326.724 99.8917L326.342 126.098L321.999 144.191C321.999 144.191 349.134 146.047 352.885 143.336L348.452 122.666L354.398 100.327L345.548 96.0449Z" fill="#E84A5F"/>
<path d="M327.991 100.301L326.724 99.8918C326.724 99.8918 322.705 102.455 323.087 108.651C323.087 108.651 322.937 111.857 323.081 113.991C323.246 116.439 318.306 140.76 318.306 140.76H325.468L328.537 118.735L327.991 100.301Z" fill="#E84A5F"/>
<path d="M354.212 148.629C353.94 148.307 353.742 147.929 353.632 147.523C353.522 147.117 353.504 146.691 353.577 146.277C353.651 145.862 353.815 145.469 354.059 145.125C354.302 144.78 354.618 144.493 354.985 144.283L353.06 134.235L357.998 136.28L359.069 145.508C359.383 146.144 359.451 146.873 359.261 147.555C359.07 148.238 358.634 148.827 358.036 149.212C357.437 149.597 356.717 149.75 356.012 149.643C355.308 149.535 354.667 149.175 354.212 148.629Z" fill="#FFB7B7"/>
<path d="M352.613 100.64L353.88 100.231C353.88 100.231 357.899 102.793 357.517 108.99C357.517 108.99 357.667 112.196 357.524 114.33C357.359 116.777 359.57 141.099 359.57 141.099H352.408L349.339 119.074L352.613 100.64Z" fill="#E84A5F"/>
<path d="M348.459 85.0504C348.459 86.6662 347.977 88.2458 347.074 89.5893C346.17 90.9328 344.886 91.9799 343.384 92.5983C341.882 93.2166 340.228 93.3784 338.634 93.0632C337.039 92.7479 335.574 91.9699 334.424 90.8273C333.274 89.6847 332.491 88.229 332.174 86.6443C331.856 85.0595 332.019 83.4168 332.641 81.924C333.264 80.4312 334.318 79.1552 335.67 78.2575C337.022 77.3598 338.611 76.8806 340.238 76.8806C341.315 76.878 342.382 77.0861 343.378 77.4932C344.374 77.9003 345.279 78.4983 346.043 79.2532C346.806 80.008 347.413 80.9049 347.827 81.8926C348.242 82.8803 348.457 83.9395 348.459 85.0097C348.46 85.0232 348.46 85.0368 348.459 85.0504Z" fill="#FFB7B7"/>
<path d="M332.043 74.0769C333.006 72.0189 334.87 72.4258 336.5 73.1234C338.564 72.6684 340.528 71.3063 342.752 72.1118C344.943 75.2781 352.298 74.3466 350.733 79.5013C350.731 80.7365 353.072 80.0175 352.664 82.0404C353.904 85.9336 348.187 93.3066 344.905 91.754C345.717 90.2759 347.571 86.9187 344.759 86.5857C338.71 92.1787 344.135 75.9354 336.534 80.6592C334.017 82.9477 330.572 76.366 332.043 74.0769Z" fill="#2F2E41"/>
</g>
<defs>
<clipPath id="clip0_148:2">
<rect width="406" height="215" fill="white"/>
</clipPath>
</defs>
</svg>
