<svg width="320" height="204" viewBox="0 0 320 204" fill="none" xmlns="http://www.w3.org/2000/svg">
<path d="M72.649 71.3276L60.5196 76.2185L186.841 194.628L198.97 189.737L72.649 71.3276Z" fill="#E6E6E6"/>
<path d="M43.7727 26.7669L71.8361 53.0728C72.3796 53.5822 72.5716 54.2034 72.37 54.7999C72.1684 55.3964 71.5896 55.9192 70.761 56.2533C69.9324 56.5874 68.9219 56.7055 67.9517 56.5815C66.9815 56.4576 66.1311 56.1017 65.5877 55.5923L33.3253 25.3505C28.9462 25.1257 24.5446 25.5701 20.5124 26.6443L55.6636 59.5939C56.2067 60.1034 56.3985 60.7245 56.1967 61.3209C55.995 61.9172 55.4163 62.4399 54.5879 62.7739C53.7594 63.1079 52.7491 63.226 51.7791 63.1022C50.809 62.9784 49.9587 62.6227 49.4151 62.1135L14.2639 29.1638C11.0549 31.0095 8.63814 33.3145 7.22876 35.8734L39.4911 66.1152C40.0342 66.6246 40.226 67.2457 40.0242 67.8421C39.8225 68.4384 39.2438 68.9611 38.4153 69.2951C37.5869 69.6292 36.5766 69.7472 35.6066 69.6234C34.6365 69.4996 33.7862 69.1439 33.2426 68.6347L5.17917 42.3288C4.45838 49.6636 8.34815 58.3571 16.8729 66.348C32.7165 81.1994 58.5607 87.9967 74.5974 81.5302C90.6341 75.0638 90.7906 57.7823 74.947 42.931C66.4222 34.9401 55.0023 29.2829 43.7727 26.7669Z" fill="#E6E6E6"/>
<path d="M127.033 55.1289H112.527V196.735H127.033V55.1289Z" fill="#E6E6E6"/>
<path d="M119.56 64.3171C138.739 64.3171 154.286 49.9192 154.286 32.1585C154.286 14.3979 138.739 0 119.56 0C100.382 0 84.8351 14.3979 84.8351 32.1585C84.8351 49.9192 100.382 64.3171 119.56 64.3171Z" fill="#E6E6E6"/>
<path d="M119.56 58.6181C135.34 58.6181 148.132 46.7717 148.132 32.1585C148.132 17.5453 135.34 5.69897 119.56 5.69897C103.781 5.69897 90.9889 17.5453 90.9889 32.1585C90.9889 46.7717 103.781 58.6181 119.56 58.6181Z" fill="#CCCCCC"/>
<path d="M160 204C248.366 204 320 201.473 320 198.356C320 195.239 248.366 192.712 160 192.712C71.6344 192.712 0 195.239 0 198.356C0 201.473 71.6344 204 160 204Z" fill="#E6E6E6"/>
<path d="M254.623 198.273C194.661 191.628 133.25 191.628 73.2886 198.273C72.3361 198.379 71.3573 198.355 70.4214 198.204C69.4854 198.052 68.6151 197.776 67.8718 197.394C67.1285 197.013 66.5303 196.536 66.1195 195.997C65.7087 195.458 65.4952 194.871 65.4942 194.276V143.768H262.417V194.276C262.416 194.871 262.203 195.458 261.792 195.997C261.381 196.536 260.783 197.013 260.04 197.394C259.296 197.776 258.426 198.052 257.49 198.204C256.554 198.355 255.575 198.379 254.623 198.273Z" fill="#E84A5F"/>
<path d="M244.395 106.474C239.848 106.472 235.333 106.936 231.035 107.849C224.766 99.4897 214.749 92.4032 202.159 87.421C189.57 82.4389 174.93 79.7678 159.958 79.7213C144.986 79.6748 130.303 82.2548 117.632 87.1585C104.961 92.0622 94.8279 99.0861 88.4221 107.406C82.1144 106.318 75.4737 106.178 69.0596 106.998C62.6455 107.818 56.6458 109.573 51.5659 112.116C46.4859 114.66 42.4745 117.916 39.8696 121.612C37.2647 125.307 36.1425 129.334 36.5977 133.352C37.0528 137.369 39.0719 141.261 42.4849 144.699C45.8979 148.137 50.6047 151.02 56.2091 153.106C61.8134 155.192 68.151 156.419 74.688 156.684C81.225 156.95 87.7699 156.245 93.7715 154.63C100.985 161.388 110.837 166.927 122.429 170.741C134.021 174.556 146.982 176.523 160.129 176.465C173.276 176.407 186.19 174.325 197.691 170.408C209.192 166.492 218.914 160.866 225.968 154.046C231.48 155.756 237.55 156.677 243.723 156.739C249.896 156.801 256.012 156.003 261.611 154.405C267.211 152.806 272.149 150.448 276.054 147.509C279.96 144.569 282.732 141.124 284.162 137.431C285.593 133.739 285.644 129.895 284.313 126.189C282.982 122.482 280.302 119.01 276.476 116.031C272.649 113.052 267.775 110.645 262.219 108.99C256.663 107.335 250.569 106.475 244.395 106.474Z" fill="#E84A5F"/>
<path d="M81.3186 128.094H80.4395C80.4095 120.898 82.9999 113.789 88.0206 107.289L88.8152 107.521C83.8503 113.948 81.2888 120.978 81.3186 128.094Z" fill="#3F3D56"/>
<path d="M238.682 128.094H237.802C237.83 121.142 235.385 114.27 230.64 107.96L231.439 107.734C236.237 114.115 238.709 121.064 238.682 128.094Z" fill="#3F3D56"/>
<path d="M65.6009 167.27L65.3888 166.746C65.637 166.708 90.6211 162.936 127.235 161.064C161.029 159.336 211.932 158.919 262.525 166.746L262.311 167.27C211.842 159.463 161.049 159.878 127.327 161.602C90.7779 163.469 65.8484 167.233 65.6009 167.27Z" fill="#3F3D56"/>
<path d="M65.6009 174.567L65.3888 174.042C65.637 174.005 90.6211 170.232 127.235 168.36C161.029 166.633 211.932 166.216 262.525 174.043L262.311 174.567C211.842 166.76 161.049 167.175 127.327 168.898C90.7779 170.766 65.8484 174.529 65.6009 174.567Z" fill="#3F3D56"/>
<path d="M65.6009 181.863L65.3888 181.339C65.637 181.301 90.6211 177.528 127.235 175.657C161.029 173.929 211.932 173.512 262.525 181.339L262.311 181.863C211.842 174.056 161.049 174.471 127.327 176.194C90.7779 178.062 65.8484 181.826 65.6009 181.863Z" fill="#3F3D56"/>
<path d="M227.37 142.188L216.719 139.962L226.944 107.877L219.915 107.484C213.06 110.717 203.932 111.985 192.223 111.02L210.968 128.437L201.41 132.585L170.918 110.1C169.544 109.087 168.791 107.809 168.791 106.489C168.791 105.266 169.438 104.076 170.635 103.098C171.831 102.121 173.512 101.409 175.424 101.071L207.986 95.3046L246.115 97.9238C251.88 103.327 252.105 107.085 243.33 108.169L227.37 142.188Z" fill="#2F2E41"/>
<path d="M216.469 154.67C215.368 154.627 214.299 154.425 213.349 154.081C212.398 153.736 211.594 153.259 211 152.687C210.406 152.116 210.04 151.466 209.931 150.791C209.823 150.116 209.974 149.435 210.374 148.803L215.669 140.432C218.359 137.3 222.05 137.692 226.409 140.432L228.539 144.274C228.714 144.59 228.784 144.925 228.743 145.258C228.703 145.591 228.554 145.916 228.304 146.213L223.143 152.347C222.517 153.091 221.553 153.706 220.368 154.119C219.183 154.531 217.828 154.723 216.469 154.67Z" fill="#2F2E41"/>
<path d="M202.704 143.708C201.603 143.665 200.534 143.464 199.584 143.119C198.634 142.775 197.829 142.297 197.235 141.726C196.641 141.154 196.275 140.504 196.167 139.829C196.058 139.154 196.21 138.473 196.609 137.841L201.904 129.47C204.594 126.338 208.285 126.73 212.644 129.47L214.774 133.312C214.949 133.628 215.019 133.963 214.979 134.296C214.938 134.629 214.789 134.954 214.539 135.251L209.378 141.386C208.752 142.129 207.788 142.745 206.603 143.157C205.418 143.57 204.063 143.761 202.704 143.708Z" fill="#2F2E41"/>
<path d="M209.477 64.6598C216.065 64.6598 221.406 61.3764 221.406 57.3261C221.406 53.2757 216.065 49.9923 209.477 49.9923C202.889 49.9923 197.548 53.2757 197.548 57.3261C197.548 61.3764 202.889 64.6598 209.477 64.6598Z" fill="#FFB9B9"/>
<path d="M228.009 67.6721L211.607 72.9104L208.199 63.4812L219.488 59.1595L228.009 67.6721Z" fill="#FFB9B9"/>
<path d="M247.82 99.2333C231.453 96.1942 216.603 94.6194 205.856 97.007C209.56 90.6001 202.723 80.8165 195.205 70.815C198.449 68.208 203.621 67.1982 209.477 66.7552C215.884 69.6155 220.352 67.7796 223.749 63.3502C231.157 63.1674 238.296 64.7803 245.263 67.5409C239.817 78.2657 240.798 88.8265 247.82 99.2333Z" fill="#3F3D56"/>
<path d="M205.643 98.5785C203.058 99.5151 200.673 101.093 198.4 103.031C194.559 101.586 191.179 99.9399 188.516 97.9823C186.653 96.5944 185.382 94.9424 184.819 93.1761C184.256 91.4099 184.42 89.5852 185.294 87.8675L192.574 73.3228C193.178 72.1147 194.353 71.0443 195.948 70.2473L196.909 69.7673L206.495 80.8989L196.909 91.8996C198.125 93.9033 201.707 96.2177 205.643 98.5785Z" fill="#3F3D56"/>
<path d="M208.941 109.668C208.072 109.912 207.123 110.027 206.169 110.007C205.214 109.986 204.281 109.828 203.442 109.547C202.603 109.266 201.883 108.869 201.337 108.388C200.791 107.906 200.435 107.352 200.297 106.771L198.712 100.103L204.251 98.2699L211.28 103.927C211.841 104.379 212.23 104.903 212.417 105.46C212.604 106.016 212.584 106.592 212.359 107.144C212.135 107.695 211.711 108.209 211.119 108.646C210.527 109.083 209.783 109.432 208.941 109.668Z" fill="#FFB9B9"/>
<path d="M221.512 57.0052L219.475 57.0424L213.826 52.1221C206.586 52.5822 200.654 54.5158 195.634 57.4778L195.125 55.3916C194.64 53.4022 195.413 51.374 197.286 49.7243C199.158 48.0747 201.988 46.9288 205.192 46.5226H205.193C206.876 46.3092 208.612 46.3066 210.297 46.5148C211.982 46.7231 213.581 47.138 215 47.7347C216.418 48.3314 217.626 49.0977 218.552 49.9879C219.478 50.8781 220.103 51.8739 220.389 52.9158L221.512 57.0052Z" fill="#2F2E41"/>
<path d="M198.606 103.034C198.21 102.5 198.021 101.916 198.055 101.329C198.089 100.742 198.345 100.168 198.802 99.6528C199.259 99.1372 199.905 98.6941 200.689 98.3585C201.472 98.0229 202.372 97.804 203.317 97.7191L214.163 96.7451L217.145 100.15L207.944 104.471C207.209 104.817 206.357 105.056 205.451 105.17C204.545 105.285 203.609 105.273 202.712 105.135C201.815 104.997 200.98 104.736 200.269 104.373C199.558 104.009 198.989 103.551 198.606 103.034Z" fill="#FFB9B9"/>
<path d="M249.885 96.9685C239.567 97.4611 228.3 99.4394 216.506 102.246C216.36 100.093 215.09 98.0267 212.885 96.3523C223.597 94.6177 233.317 92.5821 239.298 89.4114L235.677 72.6485L243.559 67.1482L244.918 67.5843C246.047 67.9449 247.04 68.4475 247.833 69.0594C248.626 69.6713 249.201 70.3788 249.52 71.1361C252.848 79.0944 254.326 86.7194 253.31 93.8951C253.441 94.5754 253.166 95.2619 252.536 95.8271C251.907 96.3924 250.965 96.7979 249.885 96.9685Z" fill="#3F3D56"/>
<path d="M42.1478 196.765C32.5511 200.455 22.9545 200.453 13.3578 196.76C13.054 196.645 12.8073 196.481 12.6444 196.286C12.4816 196.091 12.4089 195.872 12.4342 195.653L15.4286 171.72H39.6486L43.0697 195.645C43.0992 195.866 43.0287 196.087 42.866 196.285C42.7032 196.482 42.4547 196.649 42.1478 196.765Z" fill="#3F3D56"/>
<path d="M27.4268 174.698C34.1767 174.698 39.6485 173.486 39.6485 171.991C39.6485 170.496 34.1767 169.284 27.4268 169.284C20.677 169.284 15.2051 170.496 15.2051 171.991C15.2051 173.486 20.677 174.698 27.4268 174.698Z" fill="#3F3D56"/>
<path d="M37.0061 171.077C30.6376 173.831 24.4725 173.831 18.5108 171.077V166.745H37.0061V171.077Z" fill="#E84A5F"/>
<path d="M27.7584 168.911C32.8658 168.911 37.0061 167.942 37.0061 166.745C37.0061 165.549 32.8658 164.58 27.7584 164.58C22.6511 164.58 18.5108 165.549 18.5108 166.745C18.5108 167.942 22.6511 168.911 27.7584 168.911Z" fill="#E84A5F"/>
<path d="M28.199 166.745C28.6854 166.745 29.0797 166.624 29.0797 166.475C29.0797 166.325 28.6854 166.204 28.199 166.204C27.7126 166.204 27.3183 166.325 27.3183 166.475C27.3183 166.624 27.7126 166.745 28.199 166.745Z" fill="#E6E6E6"/>
<path d="M32.3577 166.745C32.8441 166.745 33.2384 166.624 33.2384 166.475C33.2384 166.325 32.8441 166.204 32.3577 166.204C31.8713 166.204 31.477 166.325 31.477 166.475C31.477 166.624 31.8713 166.745 32.3577 166.745Z" fill="#E6E6E6"/>
<path d="M30.2786 167.385C30.765 167.385 31.1594 167.264 31.1594 167.114C31.1594 166.964 30.765 166.843 30.2786 166.843C29.7922 166.843 29.3979 166.964 29.3979 167.114C29.3979 167.264 29.7922 167.385 30.2786 167.385Z" fill="#E6E6E6"/>
<path d="M21.9607 167.385C22.4471 167.385 22.8415 167.264 22.8415 167.114C22.8415 166.964 22.4471 166.843 21.9607 166.843C21.4743 166.843 21.08 166.964 21.08 167.114C21.08 167.264 21.4743 167.385 21.9607 167.385Z" fill="#E6E6E6"/>
<path d="M24.0403 166.745C24.5267 166.745 24.9211 166.624 24.9211 166.475C24.9211 166.325 24.5267 166.204 24.0403 166.204C23.5539 166.204 23.1596 166.325 23.1596 166.475C23.1596 166.624 23.5539 166.745 24.0403 166.745Z" fill="#E6E6E6"/>
<path d="M26.1199 167.704C26.6063 167.704 27.0007 167.583 27.0007 167.434C27.0007 167.284 26.6063 167.163 26.1199 167.163C25.6335 167.163 25.2392 167.284 25.2392 167.434C25.2392 167.583 25.6335 167.704 26.1199 167.704Z" fill="#E6E6E6"/>
<path d="M308.082 196.765C298.485 200.455 288.888 200.453 279.292 196.76C278.988 196.645 278.741 196.481 278.578 196.286C278.416 196.091 278.343 195.872 278.368 195.653L281.363 171.72H305.583L309.004 195.645C309.033 195.866 308.963 196.087 308.8 196.285C308.637 196.482 308.389 196.649 308.082 196.765Z" fill="#3F3D56"/>
<path d="M293.361 174.698C300.111 174.698 305.582 173.486 305.582 171.991C305.582 170.496 300.111 169.284 293.361 169.284C286.611 169.284 281.139 170.496 281.139 171.991C281.139 173.486 286.611 174.698 293.361 174.698Z" fill="#3F3D56"/>
<path d="M302.94 171.077C296.572 173.831 290.407 173.831 284.445 171.077V166.745H302.94V171.077Z" fill="#E84A5F"/>
<path d="M293.693 168.911C298.8 168.911 302.94 167.942 302.94 166.745C302.94 165.549 298.8 164.58 293.693 164.58C288.586 164.58 284.445 165.549 284.445 166.745C284.445 167.942 288.586 168.911 293.693 168.911Z" fill="#E84A5F"/>
<path d="M294.133 166.745C294.619 166.745 295.014 166.624 295.014 166.475C295.014 166.325 294.619 166.204 294.133 166.204C293.647 166.204 293.252 166.325 293.252 166.475C293.252 166.624 293.647 166.745 294.133 166.745Z" fill="#E6E6E6"/>
<path d="M298.292 166.745C298.778 166.745 299.172 166.624 299.172 166.475C299.172 166.325 298.778 166.204 298.292 166.204C297.805 166.204 297.411 166.325 297.411 166.475C297.411 166.624 297.805 166.745 298.292 166.745Z" fill="#E6E6E6"/>
<path d="M296.213 167.385C296.699 167.385 297.093 167.264 297.093 167.114C297.093 166.964 296.699 166.843 296.213 166.843C295.726 166.843 295.332 166.964 295.332 167.114C295.332 167.264 295.726 167.385 296.213 167.385Z" fill="#E6E6E6"/>
<path d="M287.895 167.385C288.382 167.385 288.776 167.264 288.776 167.114C288.776 166.964 288.382 166.843 287.895 166.843C287.409 166.843 287.014 166.964 287.014 167.114C287.014 167.264 287.409 167.385 287.895 167.385Z" fill="#E6E6E6"/>
<path d="M289.974 166.745C290.461 166.745 290.855 166.624 290.855 166.475C290.855 166.325 290.461 166.204 289.974 166.204C289.488 166.204 289.094 166.325 289.094 166.475C289.094 166.624 289.488 166.745 289.974 166.745Z" fill="#E6E6E6"/>
<path d="M292.054 167.704C292.54 167.704 292.935 167.583 292.935 167.434C292.935 167.284 292.54 167.163 292.054 167.163C291.567 167.163 291.173 167.284 291.173 167.434C291.173 167.583 291.567 167.704 292.054 167.704Z" fill="#E6E6E6"/>
</svg>
