<svg width="324" height="149" viewBox="0 0 324 149" fill="none" xmlns="http://www.w3.org/2000/svg">
<path d="M14 50C14 22.3858 36.3858 0 64 0H248C275.614 0 298 22.3858 298 50V99C298 126.614 275.614 149 248 149H64C36.3858 149 14 126.614 14 99V50Z" fill="#C4C4C4" fill-opacity="0.15"/>
<path d="M315.227 129.845H303.319C303.05 129.845 302.785 129.904 302.541 130.02C302.297 130.135 302.081 130.304 301.907 130.514C301.468 130.431 301.016 130.456 300.588 130.587C300.16 130.718 299.769 130.951 299.446 131.267C299.123 131.583 298.878 131.973 298.731 132.404C298.583 132.836 298.538 133.297 298.599 133.75C298.66 134.203 298.824 134.635 299.08 135.01C299.335 135.385 299.673 135.693 300.067 135.908C300.461 136.124 300.899 136.24 301.346 136.249C301.792 136.257 302.234 136.156 302.636 135.956L303.623 139.242C303.74 139.631 303.976 139.972 304.296 140.214C304.616 140.456 305.004 140.587 305.402 140.587H313.144C313.542 140.587 313.929 140.456 314.249 140.214C314.569 139.972 314.805 139.631 314.922 139.242L317.005 132.311C317.091 132.026 317.11 131.724 317.061 131.43C317.012 131.137 316.897 130.859 316.724 130.619C316.551 130.379 316.325 130.184 316.065 130.05C315.805 129.915 315.518 129.845 315.227 129.845ZM301.405 135.423C300.87 135.423 300.357 135.205 299.978 134.818C299.6 134.43 299.387 133.905 299.387 133.357C299.387 132.809 299.6 132.284 299.978 131.896C300.357 131.509 300.87 131.291 301.405 131.291C301.442 131.291 301.476 131.301 301.512 131.303C301.432 131.635 301.442 131.984 301.541 132.311L302.393 135.147C302.092 135.325 301.752 135.42 301.405 135.423Z" fill="#F0F0F0"/>
<path d="M25.1194 121.17H13.2114C12.9428 121.169 12.6773 121.229 12.4334 121.344C12.1896 121.46 11.9733 121.628 11.7998 121.838C11.3606 121.755 10.9085 121.781 10.4806 121.912C10.0528 122.043 9.66132 122.275 9.33844 122.591C9.01556 122.907 8.77044 123.297 8.62322 123.729C8.47599 124.16 8.43085 124.622 8.49149 125.075C8.55214 125.528 8.71684 125.959 8.97209 126.335C9.22733 126.71 9.56584 127.018 9.95982 127.233C10.3538 127.448 10.792 127.565 11.2385 127.573C11.685 127.581 12.1271 127.481 12.5284 127.28L13.9195 139.242C14.0365 139.631 14.2723 139.972 14.5924 140.214C14.9125 140.456 15.3 140.587 15.6979 140.587H23.44C23.8379 140.587 24.2254 140.456 24.5454 140.214C24.8655 139.972 25.1013 139.631 25.2183 139.242L26.8978 123.635C26.9835 123.35 27.0026 123.049 26.9536 122.755C26.9047 122.461 26.7891 122.183 26.6161 121.943C26.4431 121.703 26.2176 121.509 25.9576 121.374C25.6977 121.24 25.4106 121.17 25.1194 121.17ZM11.2974 126.747C10.7623 126.747 10.2492 126.53 9.87086 126.142C9.49252 125.755 9.27997 125.229 9.27997 124.682C9.27997 124.134 9.49252 123.608 9.87086 123.221C10.2492 122.834 10.7623 122.616 11.2974 122.616C11.3342 122.616 11.3685 122.625 11.405 122.627C11.3247 122.959 11.3345 123.308 11.4331 123.635L12.2852 126.471C11.9851 126.65 11.6445 126.745 11.2974 126.747Z" fill="#F0F0F0"/>
<path d="M165.799 111.255C165.799 110.601 165.609 109.962 165.255 109.419C164.9 108.875 164.396 108.451 163.806 108.201C163.216 107.951 162.567 107.886 161.941 108.013C161.315 108.141 160.74 108.456 160.288 108.918C159.837 109.38 159.529 109.969 159.405 110.61C159.28 111.251 159.344 111.916 159.588 112.52C159.833 113.123 160.247 113.64 160.777 114.003C161.308 114.366 161.932 114.56 162.571 114.56C162.611 114.56 162.65 114.555 162.69 114.554C163.488 117.21 163.914 119.969 163.956 122.748C163.987 124.133 163.91 125.519 163.725 126.892C163.585 127.866 163.322 128.984 162.378 129.439C161.673 129.778 162.287 130.847 162.989 130.509C164.054 129.996 164.572 128.845 164.804 127.721C165.069 126.272 165.191 124.799 165.169 123.324C165.181 120.259 164.744 117.21 163.872 114.278C164.445 114.02 164.932 113.596 165.274 113.06C165.616 112.523 165.798 111.896 165.799 111.255Z" fill="#E6E6E6"/>
<path d="M164.812 131.17C164.812 131.17 160.484 120.262 173.468 112.081L164.812 131.17Z" fill="#E6E6E6"/>
<path d="M164.58 130.972C164.58 130.972 163.26 123.197 153.041 123.264L164.58 130.972Z" fill="#E6E6E6"/>
<path d="M171.821 140.521H154.076C153.735 140.521 153.402 140.423 153.113 140.238C152.824 140.053 152.592 139.789 152.443 139.475L148.58 131.344C148.445 131.06 148.383 130.747 148.4 130.432C148.416 130.117 148.51 129.812 148.673 129.545C148.836 129.278 149.063 129.058 149.332 128.905C149.602 128.752 149.904 128.672 150.212 128.672H175.685C175.992 128.672 176.295 128.752 176.564 128.905C176.833 129.058 177.06 129.278 177.223 129.545C177.387 129.812 177.481 130.117 177.497 130.432C177.513 130.747 177.451 131.06 177.317 131.344L173.453 139.475C173.304 139.789 173.072 140.053 172.784 140.238C172.495 140.423 172.161 140.521 171.821 140.521Z" fill="#F0F0F0"/>
<path d="M323.597 141H0.403487C0.296476 141 0.193847 140.957 0.118178 140.879C0.0425098 140.802 0 140.697 0 140.587C0 140.477 0.0425098 140.372 0.118178 140.295C0.193847 140.217 0.296476 140.174 0.403487 140.174H323.597C323.704 140.174 323.806 140.217 323.882 140.295C323.957 140.372 324 140.477 324 140.587C324 140.697 323.957 140.802 323.882 140.879C323.806 140.957 323.704 141 323.597 141Z" fill="#3F3D56"/>
<path d="M67.4127 117.008L59.5709 86.6498L58.6631 83.1453L59.5144 82.3359L74.1295 74.9224L95.014 75.4549L107.275 81.8997L107.341 86.6498L107.946 129.446L110.392 139.951H65.5341L69.017 123.221L67.4127 117.008Z" fill="#E84A5F"/>
<path d="M119 139.951H107.31L104.082 116.089L104.927 86.6499L105.043 82.6449L107.275 81.8994C108.957 83.1572 110.347 84.7791 111.347 86.6499C112.781 89.2058 113.973 92.8687 113.676 97.7935C113.676 97.7935 113.941 103.609 113.689 107.482C113.516 110.128 116.532 126.855 119 139.951Z" fill="#E84A5F"/>
<path d="M67.4535 116.705L67.4126 117.008L64.311 139.951H50.8682C51.9461 126.951 53.2132 110.699 53.043 108.095C52.7909 104.225 53.0556 98.4067 53.0556 98.4067C52.7341 93.0721 54.162 89.2253 55.7473 86.6499C56.5449 85.3408 57.5274 84.1597 58.6628 83.1452C58.9147 82.9189 59.18 82.7087 59.4571 82.5159L61.6887 83.2581L62.2718 86.6499L67.4535 116.705Z" fill="#E84A5F"/>
<path d="M69.003 54.973C69.003 57.9047 69.852 60.7705 71.4428 63.2081C73.0335 65.6457 75.2945 67.5456 77.9398 68.6675C80.5851 69.7894 83.4959 70.0829 86.3042 69.511C89.1124 68.939 91.692 67.5273 93.7166 65.4543C95.7412 63.3813 97.12 60.7401 97.6786 57.8648C98.2372 54.9895 97.9505 52.0091 96.8548 49.3006C95.7591 46.592 93.9035 44.277 91.5228 42.6483C89.1421 41.0195 86.3431 40.1502 83.4799 40.1502C79.6499 40.1404 75.9731 41.6888 73.2581 44.4548C70.5432 47.2207 69.0125 50.9777 69.003 54.8991C69.0029 54.9238 69.0029 54.9484 69.003 54.973Z" fill="#FFB7B7"/>
<path d="M129.721 137.587C129.721 138.433 129.393 139.244 128.809 139.842C128.224 140.441 127.432 140.777 126.605 140.777H43.2626C42.4363 140.777 41.6438 140.441 41.0595 139.842C40.4752 139.244 40.147 138.433 40.147 137.587C40.147 136.741 40.4752 135.929 41.0595 135.331C41.6438 134.733 42.4363 134.397 43.2626 134.397H44.1877C44.1347 134.207 44.1072 134.01 44.1058 133.812V90.2466C44.1058 89.5118 44.3909 88.8071 44.8983 88.2876C45.4058 87.768 46.094 87.4761 46.8117 87.4761H123.056C123.774 87.4761 124.462 87.768 124.97 88.2875C125.477 88.8071 125.762 89.5118 125.762 90.2466V133.812C125.762 134.01 125.735 134.207 125.68 134.397H126.605C127.015 134.397 127.42 134.479 127.798 134.639C128.176 134.8 128.519 135.035 128.809 135.331C129.098 135.627 129.327 135.979 129.484 136.366C129.64 136.753 129.721 137.168 129.721 137.587Z" fill="#3F3D56"/>
<path d="M86.5481 112.358C85.5955 112.358 84.6644 112.069 83.8724 111.527C83.0804 110.985 82.4631 110.215 82.0986 109.314C81.734 108.413 81.6386 107.422 81.8245 106.465C82.0103 105.509 82.469 104.63 83.1425 103.94C83.8161 103.251 84.6742 102.781 85.6084 102.591C86.5427 102.4 87.511 102.498 88.3911 102.871C89.2711 103.244 90.0233 103.876 90.5525 104.687C91.0817 105.498 91.3642 106.452 91.3642 107.427C91.3628 108.734 90.8549 109.988 89.952 110.912C89.0491 111.837 87.825 112.357 86.5481 112.358ZM86.5481 103.322C85.7551 103.322 84.98 103.563 84.3207 104.014C83.6614 104.465 83.1475 105.106 82.8441 105.856C82.5406 106.606 82.4612 107.432 82.616 108.228C82.7707 109.024 83.1525 109.756 83.7132 110.33C84.2739 110.904 84.9883 111.295 85.766 111.453C86.5437 111.612 87.3498 111.53 88.0824 111.22C88.815 110.909 89.4411 110.383 89.8816 109.708C90.3221 109.032 90.5572 108.239 90.5572 107.427C90.556 106.339 90.1332 105.295 89.3816 104.526C88.63 103.756 87.611 103.323 86.5481 103.322Z" fill="white"/>
<path d="M84.9342 110.293C87.3712 110.293 89.3468 108.27 89.3468 105.774C89.3468 103.279 87.3712 101.256 84.9342 101.256C82.4971 101.256 80.5215 103.279 80.5215 105.774C80.5215 108.27 82.4971 110.293 84.9342 110.293Z" fill="white"/>
<path d="M220.304 67.7447V58.9942C220.304 53.7349 222.344 48.691 225.976 44.9722C229.608 41.2533 234.535 39.1641 239.671 39.1641C244.808 39.1641 249.734 41.2533 253.366 44.9722C256.998 48.691 259.038 53.7349 259.038 58.9942V67.7447C259.037 68.9297 258.577 70.0658 257.758 70.9037C256.94 71.7416 255.831 72.2129 254.673 72.2143H228.495L226.356 67.5611V72.2143H224.669C223.512 72.2129 222.402 71.7416 221.584 70.9037C220.765 70.0658 220.305 68.9297 220.304 67.7447Z" fill="#2F2E41"/>
<path d="M253.796 95.7528L254.63 105.008L255.009 109.213L255.615 115.909L255.691 116.772L256.183 122.21L256.195 122.27C256.505 123.287 257.128 124.175 257.97 124.801C258.812 125.427 259.83 125.759 260.87 125.746L283.337 125.349L289.678 125.236C289.8 125.424 289.919 125.593 290.038 125.743C290.595 126.435 291.288 127 292.072 127.4C292.856 127.801 293.713 128.028 294.589 128.067C295.468 128.109 296.346 127.957 297.164 127.623C297.982 127.289 298.721 126.781 299.331 126.131C299.453 126.002 299.572 125.868 299.683 125.727C300.513 124.681 300.999 123.392 301.072 122.046C301.144 120.699 300.799 119.364 300.086 118.23C299.611 117.471 298.983 116.825 298.244 116.335C297.505 115.845 296.672 115.523 295.802 115.389C294.936 115.254 294.053 115.306 293.208 115.542C292.364 115.779 291.577 116.195 290.9 116.763C290.685 116.944 290.484 117.142 290.298 117.354L283.337 116.316L265.806 113.703L265.057 103.347C265.054 103.3 265.051 103.253 265.048 103.203L264.443 94.8454C264.342 93.4548 263.726 92.1561 262.721 91.2146C261.717 90.2732 260.399 89.76 259.037 89.7799C258.589 89.7845 258.143 89.8486 257.711 89.9707C257.227 90.105 256.763 90.3094 256.336 90.5777C255.481 91.1096 254.79 91.877 254.34 92.7921C253.891 93.7072 253.703 94.7332 253.796 95.7528Z" fill="#9E616A"/>
<path d="M240.455 72.6943C247.468 72.6943 253.153 66.8732 253.153 59.6925C253.153 52.5118 247.468 46.6907 240.455 46.6907C233.442 46.6907 227.756 52.5118 227.756 59.6925C227.756 66.8732 233.442 72.6943 240.455 72.6943Z" fill="#9E616A"/>
<path d="M257.386 81.3622L259.695 80.5742C259.695 80.5742 264.312 82.5442 264.312 86.0901C264.312 89.6361 265.082 103.82 265.082 103.82L254.692 105.002L257.386 81.3622Z" fill="#E84A5F"/>
<path d="M208.267 140.364H217.423L220.555 113.49L221.688 103.785L221.844 102.445L222.682 95.2617C222.727 94.3596 222.53 93.4622 222.113 92.6662C221.696 91.8702 221.075 91.206 220.316 90.7454C219.557 90.2848 218.69 90.0452 217.808 90.0527C216.926 90.0601 216.062 90.3141 215.311 90.7874C215.122 90.9067 214.941 91.0395 214.77 91.1848C214.245 91.6272 213.817 92.1785 213.514 92.8024C213.212 93.4264 213.042 94.1088 213.016 94.8049L212.191 102.705L208.267 140.364Z" fill="#9E616A"/>
<path d="M221.999 103.82L211.609 102.638C211.609 102.638 212.379 88.454 212.379 84.908C212.379 81.362 216.997 79.3921 216.997 79.3921L219.305 80.1801L221.999 103.82Z" fill="#E84A5F"/>
<path d="M218.629 140.364H262.062C260.686 134.978 258.808 129.741 256.454 124.723C256.073 123.925 255.846 123.499 255.846 123.499C255.846 123.499 237.377 123.127 225.832 127.855C225.096 128.18 224.435 128.662 223.895 129.269C221.896 131.384 220.148 135.355 218.629 140.364Z" fill="#2F2E41"/>
<path d="M227.757 77.0283C227.757 77.0283 227.39 76.8269 249.304 77.6442L258.476 80.2305L259.695 80.5743C259.695 80.5743 258.541 104.214 255.462 108.548C252.384 112.882 253.153 115.246 253.923 115.64C254.693 116.034 256.617 115.246 255.462 117.216C254.308 119.186 252.769 118.004 254.308 119.186C255.847 120.368 256.617 124.702 256.617 124.702L222.754 129.43C222.754 129.43 221.6 114.064 218.521 106.184C215.443 98.304 214.673 95.1521 214.673 95.1521L216.982 79.3923L227.757 77.0283Z" fill="#E84A5F"/>
<path d="M226.76 52.3841C226.76 48.9875 228.078 45.73 230.423 43.3282C232.769 40.9264 235.951 39.5771 239.268 39.5771C242.585 39.5771 245.767 40.9264 248.112 43.3282C250.458 45.73 251.776 48.9875 251.776 52.3841V58.1679H226.76V52.3841Z" fill="#2F2E41"/>
<path d="M281.836 137.113V138.255C281.836 138.924 281.576 139.565 281.114 140.038C280.652 140.511 280.026 140.777 279.373 140.777H197.455C196.802 140.777 196.176 140.511 195.714 140.038C195.252 139.565 194.992 138.924 194.992 138.255V137.113C194.992 136.444 195.252 135.803 195.714 135.33C196.176 134.857 196.802 134.591 197.455 134.591H198.91C198.858 134.407 198.832 134.217 198.83 134.025V91.2162C198.831 90.6553 199.048 90.1176 199.436 89.721C199.823 89.3244 200.348 89.1014 200.896 89.1011H275.932C276.48 89.1014 277.005 89.3244 277.392 89.721C277.779 90.1176 277.997 90.6553 277.998 91.2162V134.025C277.998 134.217 277.971 134.407 277.918 134.591H279.373C280.026 134.591 280.652 134.857 281.114 135.33C281.576 135.803 281.836 136.444 281.836 137.113Z" fill="#3F3D56"/>
<path d="M240.028 113.287C239.102 113.287 238.197 113.006 237.427 112.48C236.657 111.953 236.057 111.204 235.703 110.328C235.348 109.452 235.256 108.489 235.436 107.559C235.617 106.629 236.063 105.775 236.717 105.104C237.372 104.434 238.206 103.978 239.114 103.793C240.023 103.608 240.964 103.703 241.819 104.065C242.675 104.428 243.406 105.043 243.921 105.831C244.435 106.619 244.71 107.546 244.71 108.494C244.708 109.765 244.214 110.983 243.337 111.882C242.459 112.781 241.269 113.286 240.028 113.287ZM240.028 104.527C239.261 104.527 238.512 104.759 237.875 105.195C237.238 105.631 236.741 106.251 236.448 106.976C236.155 107.701 236.078 108.498 236.228 109.268C236.377 110.038 236.746 110.744 237.288 111.299C237.83 111.854 238.52 112.232 239.272 112.385C240.024 112.538 240.803 112.46 241.511 112.159C242.219 111.859 242.824 111.35 243.25 110.698C243.675 110.046 243.903 109.279 243.903 108.494C243.901 107.442 243.493 106.434 242.766 105.69C242.04 104.946 241.055 104.528 240.028 104.527V104.527Z" fill="white"/>
<path d="M238.414 111.222C240.777 111.222 242.692 109.261 242.692 106.842C242.692 104.422 240.777 102.461 238.414 102.461C236.051 102.461 234.136 104.422 234.136 106.842C234.136 109.261 236.051 111.222 238.414 111.222Z" fill="white"/>
<path d="M99.8786 42.6601C98.7115 41.7374 97.7629 40.5571 97.1032 39.2069C96.8677 38.6937 96.5428 38.2288 96.1445 37.8348L93.4072 39.9904L95.0801 37.0071C90.7956 34.3554 82.4291 35.7637 82.4291 35.7637C73.7258 31.0185 70.53 36.9419 69.4159 40.6983C68.9745 42.0578 68.1962 43.2767 67.1571 44.2359C65.0102 46.3319 68.391 50.4089 68.391 50.4089V50.697L69.198 56.3089C69.198 56.3089 70.005 52.5907 72.1345 49.978C73.4771 48.3307 75.6623 47.3512 76.6773 47.3715C89.7758 47.6332 92.2556 48.1643 92.2556 48.1643C92.2556 48.1643 94.4732 49.3841 95.4526 49.8965C98.6175 51.5523 97.8456 57.5483 97.8456 57.5483L100.211 46.9065C100.756 44.3269 100.453 43.1433 99.8786 42.6601Z" fill="#2F2E41"/>
<path d="M154.213 13C148.643 13 144.174 16.8252 144.174 24.136C144.174 28.9102 146.075 33.7729 148.962 36.7692C150.089 39.7655 148.058 40.8806 147.637 41.0394C141.809 43.1772 135 47.0542 135 50.9052V52.3452C135 57.5938 144.995 58.8068 154.268 58.8068C156.289 58.8034 158.31 58.727 160.326 58.5779C157.802 55.9138 156.398 52.3818 156.404 48.712C156.404 45.4055 157.53 42.376 159.402 39.9428C159.126 39.2929 159.015 38.2683 159.519 36.712C162.39 33.712 164.25 28.8917 164.25 24.1342C164.25 16.8252 159.775 13.0018 154.211 13.0018L154.213 13ZM170.828 37.0572C167.738 37.0572 164.773 38.285 162.588 40.4706C160.402 42.6561 159.174 45.6203 159.174 48.7111C159.174 51.8019 160.402 54.7661 162.588 56.9516C164.773 59.1371 167.738 60.3649 170.828 60.3649C173.919 60.3649 176.883 59.1371 179.069 56.9516C181.254 54.7661 182.482 51.8019 182.482 48.7111C182.482 45.6203 181.254 42.6561 179.069 40.4706C176.883 38.285 173.919 37.0572 170.828 37.0572ZM169.213 42.2505H172.444V47.0394H177.233V50.3846H172.444V55.1735H169.213V50.3846H164.367V47.0394H169.213V42.2505Z" fill="#4C8BEA" fill-opacity="0.5"/>
</svg>
